<mxfile host="app.diagrams.net" modified="2022-09-17T19:25:21.180Z" agent="5.0 (Windows NT 10.0; Win64; x64) AppleWebKit/537.36 (KHTML, like Gecko) Chrome/105.0.0.0 Safari/537.36" etag="ATUDHdYZnUCDebfrtA0Y" version="20.3.2" type="github">
  <diagram id="AvsYB0YI7WET9i5dmit7" name="Page-1">
    <mxGraphModel dx="879" dy="601" grid="1" gridSize="10" guides="1" tooltips="1" connect="1" arrows="1" fold="1" page="1" pageScale="1" pageWidth="850" pageHeight="1100" math="0" shadow="0">
      <root>
        <mxCell id="0" />
        <mxCell id="1" parent="0" />
        <mxCell id="5TN1G6xjI4NDvHrWanWj-1" value="Cliente" style="rounded=0;whiteSpace=wrap;html=1;" vertex="1" parent="1">
          <mxGeometry x="160" y="240" width="120" height="50" as="geometry" />
        </mxCell>
        <mxCell id="5TN1G6xjI4NDvHrWanWj-22" value="" style="edgeStyle=orthogonalEdgeStyle;rounded=0;orthogonalLoop=1;jettySize=auto;html=1;" edge="1" parent="1" source="5TN1G6xjI4NDvHrWanWj-2" target="5TN1G6xjI4NDvHrWanWj-5">
          <mxGeometry relative="1" as="geometry" />
        </mxCell>
        <mxCell id="5TN1G6xjI4NDvHrWanWj-2" value="Pedidos" style="rounded=0;whiteSpace=wrap;html=1;" vertex="1" parent="1">
          <mxGeometry x="480" y="170" width="120" height="60" as="geometry" />
        </mxCell>
        <mxCell id="5TN1G6xjI4NDvHrWanWj-3" value="Productos" style="rounded=0;whiteSpace=wrap;html=1;" vertex="1" parent="1">
          <mxGeometry x="800" y="240" width="120" height="60" as="geometry" />
        </mxCell>
        <mxCell id="5TN1G6xjI4NDvHrWanWj-4" value="Tiene" style="rhombus;whiteSpace=wrap;html=1;" vertex="1" parent="1">
          <mxGeometry x="320" y="160" width="80" height="80" as="geometry" />
        </mxCell>
        <mxCell id="5TN1G6xjI4NDvHrWanWj-5" value="Tiene" style="rhombus;whiteSpace=wrap;html=1;" vertex="1" parent="1">
          <mxGeometry x="680" y="160" width="80" height="80" as="geometry" />
        </mxCell>
        <mxCell id="5TN1G6xjI4NDvHrWanWj-7" value="" style="endArrow=none;html=1;rounded=0;exitX=0.5;exitY=0;exitDx=0;exitDy=0;entryX=0;entryY=0.5;entryDx=0;entryDy=0;" edge="1" parent="1" source="5TN1G6xjI4NDvHrWanWj-1" target="5TN1G6xjI4NDvHrWanWj-4">
          <mxGeometry width="50" height="50" relative="1" as="geometry">
            <mxPoint x="280" y="290" as="sourcePoint" />
            <mxPoint x="330" y="240" as="targetPoint" />
          </mxGeometry>
        </mxCell>
        <mxCell id="5TN1G6xjI4NDvHrWanWj-24" value="1" style="edgeLabel;html=1;align=center;verticalAlign=middle;resizable=0;points=[];" vertex="1" connectable="0" parent="5TN1G6xjI4NDvHrWanWj-7">
          <mxGeometry x="-0.4862" y="2" relative="1" as="geometry">
            <mxPoint as="offset" />
          </mxGeometry>
        </mxCell>
        <mxCell id="5TN1G6xjI4NDvHrWanWj-8" value="" style="endArrow=none;html=1;rounded=0;exitX=0.5;exitY=0;exitDx=0;exitDy=0;entryX=0;entryY=0.5;entryDx=0;entryDy=0;" edge="1" parent="1" target="5TN1G6xjI4NDvHrWanWj-2">
          <mxGeometry width="50" height="50" relative="1" as="geometry">
            <mxPoint x="400" y="200" as="sourcePoint" />
            <mxPoint x="500" y="160" as="targetPoint" />
          </mxGeometry>
        </mxCell>
        <mxCell id="5TN1G6xjI4NDvHrWanWj-21" value="n" style="edgeLabel;html=1;align=center;verticalAlign=middle;resizable=0;points=[];" vertex="1" connectable="0" parent="5TN1G6xjI4NDvHrWanWj-8">
          <mxGeometry x="0.65" y="-2" relative="1" as="geometry">
            <mxPoint as="offset" />
          </mxGeometry>
        </mxCell>
        <mxCell id="5TN1G6xjI4NDvHrWanWj-9" value="" style="endArrow=none;html=1;rounded=0;exitX=0.5;exitY=0;exitDx=0;exitDy=0;entryX=0;entryY=0.5;entryDx=0;entryDy=0;" edge="1" parent="1">
          <mxGeometry width="50" height="50" relative="1" as="geometry">
            <mxPoint x="600" y="199.5" as="sourcePoint" />
            <mxPoint x="680" y="199.5" as="targetPoint" />
          </mxGeometry>
        </mxCell>
        <mxCell id="5TN1G6xjI4NDvHrWanWj-23" value="1" style="edgeLabel;html=1;align=center;verticalAlign=middle;resizable=0;points=[];" vertex="1" connectable="0" parent="5TN1G6xjI4NDvHrWanWj-9">
          <mxGeometry x="-0.65" relative="1" as="geometry">
            <mxPoint y="1" as="offset" />
          </mxGeometry>
        </mxCell>
        <mxCell id="5TN1G6xjI4NDvHrWanWj-10" value="" style="endArrow=none;html=1;rounded=0;exitX=0.5;exitY=0;exitDx=0;exitDy=0;entryX=0.5;entryY=0;entryDx=0;entryDy=0;" edge="1" parent="1" target="5TN1G6xjI4NDvHrWanWj-3">
          <mxGeometry width="50" height="50" relative="1" as="geometry">
            <mxPoint x="760" y="200" as="sourcePoint" />
            <mxPoint x="860" y="160" as="targetPoint" />
          </mxGeometry>
        </mxCell>
        <mxCell id="5TN1G6xjI4NDvHrWanWj-25" value="n" style="edgeLabel;html=1;align=center;verticalAlign=middle;resizable=0;points=[];" vertex="1" connectable="0" parent="5TN1G6xjI4NDvHrWanWj-10">
          <mxGeometry x="0.4241" y="-1" relative="1" as="geometry">
            <mxPoint y="-1" as="offset" />
          </mxGeometry>
        </mxCell>
        <mxCell id="5TN1G6xjI4NDvHrWanWj-12" value="Nombre" style="ellipse;whiteSpace=wrap;html=1;" vertex="1" parent="1">
          <mxGeometry x="160" y="370" width="70" height="40" as="geometry" />
        </mxCell>
        <mxCell id="5TN1G6xjI4NDvHrWanWj-13" value="Tel." style="ellipse;whiteSpace=wrap;html=1;" vertex="1" parent="1">
          <mxGeometry x="250" y="320" width="70" height="40" as="geometry" />
        </mxCell>
        <mxCell id="5TN1G6xjI4NDvHrWanWj-14" value="DNI" style="ellipse;whiteSpace=wrap;html=1;" vertex="1" parent="1">
          <mxGeometry x="160" y="320" width="70" height="40" as="geometry" />
        </mxCell>
        <mxCell id="5TN1G6xjI4NDvHrWanWj-16" value="Fecha nacimiento" style="ellipse;whiteSpace=wrap;html=1;" vertex="1" parent="1">
          <mxGeometry x="250" y="370" width="70" height="40" as="geometry" />
        </mxCell>
        <mxCell id="5TN1G6xjI4NDvHrWanWj-17" value="Apellido" style="ellipse;whiteSpace=wrap;html=1;" vertex="1" parent="1">
          <mxGeometry x="160" y="420" width="70" height="40" as="geometry" />
        </mxCell>
        <mxCell id="5TN1G6xjI4NDvHrWanWj-19" value="Fecha" style="ellipse;whiteSpace=wrap;html=1;" vertex="1" parent="1">
          <mxGeometry x="545" y="110" width="70" height="40" as="geometry" />
        </mxCell>
        <mxCell id="5TN1G6xjI4NDvHrWanWj-20" value="Nro" style="ellipse;whiteSpace=wrap;html=1;" vertex="1" parent="1">
          <mxGeometry x="465" y="110" width="70" height="40" as="geometry" />
        </mxCell>
        <mxCell id="5TN1G6xjI4NDvHrWanWj-26" value="Cantidad" style="ellipse;whiteSpace=wrap;html=1;" vertex="1" parent="1">
          <mxGeometry x="880" y="320" width="70" height="40" as="geometry" />
        </mxCell>
        <mxCell id="5TN1G6xjI4NDvHrWanWj-27" value="Precio" style="ellipse;whiteSpace=wrap;html=1;" vertex="1" parent="1">
          <mxGeometry x="880" y="370" width="70" height="40" as="geometry" />
        </mxCell>
        <mxCell id="5TN1G6xjI4NDvHrWanWj-28" value="Nombre" style="ellipse;whiteSpace=wrap;html=1;" vertex="1" parent="1">
          <mxGeometry x="800" y="370" width="70" height="40" as="geometry" />
        </mxCell>
        <mxCell id="5TN1G6xjI4NDvHrWanWj-29" value="CÃ³digo" style="ellipse;whiteSpace=wrap;html=1;" vertex="1" parent="1">
          <mxGeometry x="800" y="320" width="70" height="40" as="geometry" />
        </mxCell>
      </root>
    </mxGraphModel>
  </diagram>
</mxfile>
